<?xml version="1.0" ?><svg id="Layer_1" style="enable-background:new 0 0 64 64;" version="1.1" viewBox="0 0 64 64" xml:space="preserve" xmlns="http://www.w3.org/2000/svg" xmlns:xlink="http://www.w3.org/1999/xlink"><path d="M48.3,21.4c-1.1-3-3.2-5.7-5.9-7.3c-5.6-3.5-13-2.6-17.5,2.1c-2.6,2.7-4,6.2-4,9.9c0,3.9,0,7.8,0,11.8c0,0.3,0,0.7,0,1  c-1.2-1.2-2.4-2.4-3.7-3.7c-0.9-0.9-2.3-0.9-3.1,0c-0.9,0.9-0.9,2.3,0,3.1c2.4,2.4,4.9,4.9,7.3,7.3c0.9,0.9,2.3,0.9,3.1,0  c2.6-2.6,5-5,7.6-7.6c0.9-0.9,0.9-2.3,0-3.1c-0.9-0.9-2.3-0.9-3.1,0c-1.2,1.2-2.4,2.4-3.7,3.7c0-3.7,0-7.2,0-10.9c0-0.6,0-1.1,0-1.7  c0.1-5.9,5.6-10.7,11.5-9.5c2.9,0.6,5.2,2.3,6.7,4.9c1.1,2.1,1.1,4.3,1.1,6.7c0,2.9,4.5,2.9,4.5,0C49.1,25.9,49.1,23.7,48.3,21.4z"/></svg>